<svg width="100" height="100" viewBox="0 0 100 100" fill="none" xmlns="http://www.w3.org/2000/svg">
<path fill-rule="evenodd" clip-rule="evenodd" d="M91.0116 89.2663L99.884 1.15573L100 0H98.6929H1.3072H0L0.116099 1.15573L8.97881 89.2806L9.05268 90.0156L9.85106 90.2116L49.6219 100H50.26L90.1392 90.1973L90.9375 90.0013L91.0116 89.2663Z" fill="#1572B6"/>
<path fill-rule="evenodd" clip-rule="evenodd" d="M92.2945 6.25H50.0015V93.5782L84.3511 85.1349L92.2945 6.25Z" fill="#35A8DB"/>
<path fill-rule="evenodd" clip-rule="evenodd" d="M49.9511 29.711L20.1211 40.7253L21.1105 51.6298L49.9511 40.6973L80.6297 29.0689L81.9016 17.9138L49.9511 29.711Z" fill="#E9E9E8"/>
<path fill-rule="evenodd" clip-rule="evenodd" d="M49.9531 17.9141H50.1742H50.426H50.6772H50.9291H51.1809H51.4328H51.6847H51.9366H52.1885H52.4403H52.6922H52.9441H53.196H53.4478H53.6997H53.9516H54.2028H54.4546H54.7065H54.9584H55.2103H55.4622H55.714H55.9659H56.2178H56.4697H56.7216H56.9727H57.2246H57.4765H57.7283H57.9802H58.2321H58.484H58.7359H58.9877H59.2396H59.4915H59.7434H59.9953H60.2471H60.499H60.7502H61.002H61.2539H61.5058H61.7577H62.0096H62.2614H62.5133H62.7652H63.0171H63.2689H63.5208H63.7727H64.0239H64.2757H64.5276H64.7795H65.0314H65.2833H65.5351H65.787H66.0389H66.2908H66.5427H66.7945H67.0457H67.2976H67.5494H67.8013H68.0532H68.3051H68.5569H68.8088H69.0607H69.3126H69.5645H69.8163H70.0682H70.3201H70.5713H70.8231H71.075H71.3269H71.5788H71.8307H72.0825H72.3344H72.5863H72.8382H73.0901H73.3419H73.5931H73.845H74.0968H74.3487H74.6006H74.8525H75.1044H75.3562H75.6081H75.86H76.1119H76.3638H76.6156H76.8675H77.1187H77.3705H77.6224H77.8743H78.1262H78.378H78.6299H78.8818H79.1337H79.3856H79.6374H79.8893H80.1412H80.3931H80.6442H80.8961H81.148H81.3999H81.6518H81.9036L81.6518 20.122L81.3999 22.3298L81.148 24.5375L80.8961 26.746L80.6442 28.9538L80.6317 29.0685H80.3931H80.1412H79.8893H79.6374H79.3856H79.1337H78.8818H78.6299H78.378H78.1262H77.8743H77.6224H77.3705H77.1187H76.8675H76.6156H76.3638H76.1119H75.86H75.6081H75.3562H75.1044H74.8525H74.6006H74.3487H74.0968H73.845H73.5931H73.3419H73.0901H72.8382H72.5863H72.3344H72.0825H71.8307H71.5788H71.3269H71.075H70.8231H70.5713H70.3201H70.0682H69.8163H69.5645H69.3126H69.0607H68.8088H68.5569H68.3051H68.0532H67.8013H67.5494H67.2976H67.0457H66.7945H66.5427H66.2908H66.0389H65.787H65.5351H65.2833H65.0314H64.7795H64.5276H64.2757H64.0239H63.7727H63.5208H63.2689H63.0171H62.7652H62.5133H62.2614H62.0096H61.7577H61.5058H61.2539H61.002H60.7502H60.499H60.2471H59.9953H59.7434H59.4915H59.2396H58.9877H58.7359H58.484H58.2321H57.9802H57.7283H57.4765H57.2246H56.9727H56.7216H56.4697H56.2178H55.9659H55.714H55.4622H55.2103H54.9584H54.7065H54.4546H54.2028H53.9516H53.6997H53.4478H53.196H52.9441H52.6922H52.4403H52.1885H51.9366H51.692H51.6847H51.4328H51.1809H50.9291H50.6772H50.426H50.1742H49.9898H49.9531H49.9223H49.6704H49.4185H49.1666H48.9148H48.6629H48.411H48.1593H47.9075H47.6557H47.4039H47.152H46.9002H46.6485H46.3966H46.1448H45.8929H45.6411H45.3893H45.1375H44.8857H44.6338H44.382H44.1301H43.8784H43.6265H43.3747H43.1229H42.871H42.6192H42.3674H42.1156H41.8637H41.6119H41.3601H41.1083H40.8565H40.6046H40.3528H40.101H39.8491H39.5974H39.3456H39.0937H38.8419H38.59H38.3383H38.0864H37.8346H37.5828H37.3309H37.0792H36.8273H36.5755H36.3236H36.0718H35.82H35.5682H35.3164H35.0645H34.8127H34.5609H34.309H34.0573H33.8054H33.5536H33.3017H33.0499H32.7981H32.5463H32.2945H32.0426H31.7908H31.539H31.2872H31.0354H30.7835H30.5317H30.2799H30.0281H29.7762H29.5244H29.2726H29.0208H28.7689H28.5172H28.2653H28.0135H27.7616H27.5098H27.258H27.0062H26.7544H26.5025H26.2507H25.9989H25.7471H25.4952H25.2434H24.9916H24.7398H24.488H24.2361H23.9843H23.7325H23.4807H23.2288H22.977H22.7252H22.4734H22.2215H21.9697H21.7179H21.4661H21.2143H20.9624H20.7106H20.4588H20.207H19.9551H19.7033H19.4515H19.1997H18.9918L18.9479 28.7531L18.696 26.9462L18.4442 25.14L18.1924 23.333L17.9406 21.5268L17.6888 19.7204L17.437 17.9141H17.6888H17.9406H18.1924H18.4442H18.696H18.9479H19.1997H19.4515H19.7033H19.9551H20.207H20.4588H20.7106H20.9624H21.2143H21.4661H21.7179H21.9697H22.2215H22.4734H22.7252H22.977H23.2288H23.4807H23.7325H23.9843H24.2361H24.488H24.7398H24.9916H25.2434H25.4952H25.7471H25.9989H26.2507H26.5025H26.7544H27.0062H27.258H27.5098H27.7616H28.0135H28.2653H28.5172H28.7689H29.0208H29.2726H29.5244H29.7762H30.0281H30.2799H30.5317H30.7835H31.0354H31.2872H31.539H31.7908H32.0426H32.2945H32.5463H32.7981H33.0499H33.3017H33.5536H33.8054H34.0573H34.309H34.5609H34.8127H35.0645H35.3164H35.5682H35.82H36.0718H36.3236H36.5755H36.8273H37.0792H37.3309H37.5828H37.8346H38.0864H38.3383H38.59H38.8419H39.0937H39.3456H39.5974H39.8491H40.101H40.3528H40.6046H40.8565H41.1083H41.3601H41.6119H41.8637H42.1156H42.3674H42.6192H42.871H43.1229H43.3747H43.6265H43.8784H44.1301H44.382H44.6338H44.8857H45.1375H45.3893H45.6411H45.8929H46.1448H46.3966H46.6485H46.9002H47.152H47.4039H47.6557H47.9075H48.1593H48.411H48.6629H48.9148H49.1666H49.4185H49.6704H49.9223H49.9531Z" fill="#E9E9E8"/>
<path fill-rule="evenodd" clip-rule="evenodd" d="M20.1689 40.7267H79.5481L78.4664 51.7554L21.1583 51.6297L20.1689 40.7267Z" fill="#E9E9E8"/>
<path fill-rule="evenodd" clip-rule="evenodd" d="M22.0229 57.7729L35.012 57.7774L35.8595 66.795L49.9512 69.8933L64.4184 66.2937L65.3973 51.547L78.5023 51.3647L76.1524 75.3178L49.9982 82.0867L23.6558 75.1928L22.0229 57.7729Z" fill="#E9E9E8"/>
<path fill-rule="evenodd" clip-rule="evenodd" d="M50.0015 40.6794L80.6331 29.0688L81.905 17.9138L50.0015 29.6936V40.6794Z" fill="#FFFFFE"/>
<path fill-rule="evenodd" clip-rule="evenodd" d="M50.0015 17.9141H50.1755H50.4274H50.6785H50.9304H51.1823H51.4342H51.686H51.9379H52.1898H52.4417H52.6936H52.9454H53.1973H53.4492H53.7011H53.953H54.2041H54.456H54.7079H54.9597H55.2116H55.4635H55.7154H55.9673H56.2191H56.471H56.7229H56.974H57.2259H57.4778H57.7297H57.9816H58.2334H58.4853H58.7372H58.9891H59.241H59.4928H59.7447H59.9966H60.2485H60.5004H60.7515H61.0034H61.2553H61.5072H61.759H62.0109H62.2628H62.5147H62.7665H63.0184H63.2703H63.5222H63.7741H64.0252H64.2771H64.529H64.7808H65.0327H65.2846H65.5365H65.7884H66.0402H66.2921H66.544H66.7959H67.047H67.2989H67.5508H67.8027H68.0545H68.3064H68.5583H68.8102H69.0621H69.3139H69.5658H69.8177H70.0696H70.3215H70.5726H70.8245H71.0764H71.3283H71.5801H71.832H72.0839H72.3358H72.5876H72.8395H73.0914H73.3433H73.5944H73.8463H74.0982H74.3501H74.602H74.8538H75.1057H75.3576H75.6095H75.8614H76.1132H76.3651H76.617H76.8689H77.12H77.3719H77.6238H77.8756H78.1275H78.3794H78.6313H78.8832H79.135H79.3869H79.6388H79.8907H80.1426H80.3944H80.6456H80.8975H81.1494H81.4012H81.6531H81.905L81.6531 20.122L81.4012 22.3298L81.1494 24.5375L80.8975 26.746L80.6456 28.9538L80.6331 29.0685H80.3944H80.1426H79.8907H79.6388H79.3869H79.135H78.8832H78.6313H78.3794H78.1275H77.8756H77.6238H77.3719H77.12H76.8689H76.617H76.3651H76.1132H75.8614H75.6095H75.3576H75.1057H74.8538H74.602H74.3501H74.0982H73.8463H73.5944H73.3433H73.0914H72.8395H72.5876H72.3358H72.0839H71.832H71.5801H71.3283H71.0764H70.8245H70.5726H70.3215H70.0696H69.8177H69.5658H69.3139H69.0621H68.8102H68.5583H68.3064H68.0545H67.8027H67.5508H67.2989H67.047H66.7959H66.544H66.2921H66.0402H65.7884H65.5365H65.2846H65.0327H64.7808H64.529H64.2771H64.0252H63.7741H63.5222H63.2703H63.0184H62.7665H62.5147H62.2628H62.0109H61.759H61.5072H61.2553H61.0034H60.7515H60.5004H60.2485H59.9966H59.7447H59.4928H59.241H58.9891H58.7372H58.4853H58.2334H57.9816H57.7297H57.4778H57.2259H56.974H56.7229H56.471H56.2191H55.9673H55.7154H55.4635H55.2116H54.9597H54.7079H54.456H54.2041H53.953H53.7011H53.4492H53.1973H52.9454H52.6936H52.4417H52.1898H51.9379H51.6934H51.686H51.4342H51.1823H50.9304H50.6785H50.4274H50.1755H50.0015V17.9141Z" fill="#FFFFFE"/>
<path fill-rule="evenodd" clip-rule="evenodd" d="M50.0015 40.7267H79.5492L78.4675 51.7554L50.0015 51.6929V40.7267Z" fill="#FFFFFE"/>
<path fill-rule="evenodd" clip-rule="evenodd" d="M50.0015 69.8816L64.4218 66.2937L65.4006 51.547L78.5057 51.3647L76.1558 75.3178L50.0015 82.0867V82.086V69.8816Z" fill="#FFFFFE"/>
</svg>
