<svg width="100" height="100" viewBox="0 0 100 100" fill="none" xmlns="http://www.w3.org/2000/svg">
<g clip-path="url(#clip0)">
<path d="M100 26.7186H61.4844V49.9999H100V26.7186Z" fill="#21A365"/>
<path d="M100 50H61.4844V73.2812H100V50Z" fill="#107C41"/>
<path d="M61.4844 26.7186H23.0469V49.9999H61.4844V26.7186Z" fill="#107C41"/>
<path d="M61.4849 73.2813V50H23.1255V73.2813V76.6406V91.9531C23.1255 94.4531 25.1567 96.4844 27.6567 96.4844H95.3911C97.8911 96.4844 99.9224 94.4531 99.9224 91.9531V73.2813H61.4849Z" fill="#185B37"/>
<path d="M95.3911 3.51562H61.4067V26.7969H100V8.04688C99.9224 5.54688 97.8911 3.51562 95.3911 3.51562Z" fill="#33C481"/>
<path d="M61.4844 3.51562H27.7344C25.2344 3.51562 23.2031 5.54688 23.2031 8.04688V26.7188H61.5625V3.51562H61.4844Z" fill="#21A365"/>
<path d="M46.4849 75.3906H5.07861C2.34424 75.3906 0.0786133 73.125 0.0786133 70.3906V29.6094C0.0786133 26.875 2.34424 24.6094 5.07861 24.6094H46.4849C49.2192 24.6094 51.4849 26.875 51.4849 29.6094V70.3906C51.4849 73.125 49.2974 75.3906 46.4849 75.3906Z" fill="#17864C"/>
<path d="M31.6401 64.375L28.5933 58.8281C27.3433 56.6406 26.562 55.1562 25.7026 53.5156H25.6245C24.9214 55.1562 24.2183 56.6406 23.0464 58.8281L20.312 64.375H14.3745L22.812 50.2344L14.6089 36.3281H20.6245L23.6714 42.1094C24.6089 43.8281 25.312 45.2344 26.0151 46.7969H26.1714C26.9526 45.0781 27.4995 43.8281 28.437 42.1094L31.4839 36.3281H37.4214L29.062 50L37.7339 64.375H31.6401Z" fill="white"/>
<path opacity="0.2" d="M52.1089 29.1407C52.1089 29.297 52.1089 29.4532 52.1089 29.6095V70.3907C52.1089 73.1251 49.8433 75.3907 47.1089 75.3907H23.7495V79.8439H51.2495C53.9839 79.8439 56.2495 77.5783 56.2495 74.8439V34.0626C56.3277 31.5626 54.4526 29.4532 52.1089 29.1407Z" fill="black"/>
</g>
<defs>
<clipPath id="clip0">
<rect width="100" height="100" fill="white"/>
</clipPath>
</defs>
</svg>
