<svg width="100" height="100" viewBox="0 0 100 100" fill="none" xmlns="http://www.w3.org/2000/svg">
<path d="M36.1104 91.6667C43.777 91.6667 49.9991 85.4445 49.9991 77.7778V63.889H36.1104C28.4438 63.889 22.2217 70.1112 22.2217 77.7778C22.2217 85.4445 28.4438 91.6667 36.1104 91.6667Z" fill="#0ACF83"/>
<path d="M22.2217 50C22.2217 42.3333 28.4438 36.1111 36.1104 36.1111H49.9991V63.8889H36.1104C28.4438 63.8889 22.2217 57.6666 22.2217 50Z" fill="#A259FF"/>
<path d="M22.2217 22.2222C22.2217 14.5555 28.4438 8.33331 36.1104 8.33331H49.9991V36.1111H36.1104C28.4438 36.1111 22.2217 29.8889 22.2217 22.2222Z" fill="#F24E1E"/>
<path d="M50 8.33331H63.8889C71.5556 8.33331 77.7778 14.5555 77.7778 22.2222C77.7778 29.8889 71.5556 36.1111 63.8889 36.1111H50V8.33331Z" fill="#FF7262"/>
<path d="M77.7778 50C77.7778 57.6666 71.5556 63.8889 63.8889 63.8889C56.2222 63.8889 50 57.6666 50 50C50 42.3333 56.2222 36.1111 63.8889 36.1111C71.5556 36.1111 77.7778 42.3333 77.7778 50Z" fill="#1ABCFE"/>
</svg>
