<svg width="30" height="30" viewBox="0 0 30 30" fill="none" xmlns="http://www.w3.org/2000/svg">
<path d="M2.8125 6.50415H27.1875V23.4956H2.8125V6.50415Z" fill="#D60A2E"/>
<path d="M2.8125 6.50415H27.1875V8.93157H2.8125V6.50415Z" fill="#F0F0F0"/>
<path d="M2.8125 11.3591H27.1875V13.7865H2.8125V11.3591Z" fill="#F0F0F0"/>
<path d="M2.8125 16.2136H27.1875V18.641H2.8125V16.2136Z" fill="#F0F0F0"/>
<path d="M2.8125 21.0686H27.1875V23.496H2.8125V21.0686Z" fill="#F0F0F0"/>
<path d="M2.8125 6.50415H14.1405V13.7862H2.8125V6.50415Z" fill="#0B55B1"/>
<path d="M4.35709 7.35449L4.54061 7.72644L4.951 7.78621L4.65404 8.07566L4.72412 8.48441L4.35709 8.29129L3.99006 8.48441L4.06014 8.07566L3.76318 7.78621L4.17357 7.72644L4.35709 7.35449Z" fill="#F0F0F0"/>
<path d="M6.00455 7.35449L6.18831 7.72644L6.5987 7.78621L6.30151 8.07566L6.37182 8.48441L6.00455 8.29129L5.63752 8.48441L5.7076 8.07566L5.41064 7.78621L5.82104 7.72644L6.00455 7.35449Z" fill="#F0F0F0"/>
<path d="M7.65273 7.35449L7.83625 7.72644L8.24664 7.78621L7.94969 8.07566L8.01977 8.48441L7.65273 8.29129L7.28547 8.48441L7.35555 8.07566L7.05859 7.78621L7.46898 7.72644L7.65273 7.35449Z" fill="#F0F0F0"/>
<path d="M9.30045 7.35449L9.48397 7.72644L9.89436 7.78621L9.5974 8.07566L9.66748 8.48441L9.30045 8.29129L8.93342 8.48441L9.0035 8.07566L8.70654 7.78621L9.11693 7.72644L9.30045 7.35449Z" fill="#F0F0F0"/>
<path d="M10.9479 7.35449L11.1314 7.72644L11.5418 7.78621L11.2449 8.07566L11.3149 8.48441L10.9479 8.29129L10.5809 8.48441L10.651 8.07566L10.354 7.78621L10.7644 7.72644L10.9479 7.35449Z" fill="#F0F0F0"/>
<path d="M12.5959 7.35449L12.7794 7.72644L13.1898 7.78621L12.8928 8.07566L12.9629 8.48441L12.5959 8.29129L12.2288 8.48441L12.2989 8.07566L12.002 7.78621L12.4123 7.72644L12.5959 7.35449Z" fill="#F0F0F0"/>
<path d="M4.35709 8.83862L4.54061 9.21034L4.951 9.27011L4.65404 9.55956L4.72412 9.96831L4.35709 9.77542L3.99006 9.96831L4.06014 9.55956L3.76318 9.27011L4.17357 9.21034L4.35709 8.83862Z" fill="#F0F0F0"/>
<path d="M6.00455 8.83862L6.18831 9.21034L6.5987 9.27011L6.30151 9.55956L6.37182 9.96831L6.00455 9.77542L5.63752 9.96831L5.7076 9.55956L5.41064 9.27011L5.82104 9.21034L6.00455 8.83862Z" fill="#F0F0F0"/>
<path d="M7.65273 8.83862L7.83625 9.21034L8.24664 9.27011L7.94969 9.55956L8.01977 9.96831L7.65273 9.77542L7.28547 9.96831L7.35555 9.55956L7.05859 9.27011L7.46898 9.21034L7.65273 8.83862Z" fill="#F0F0F0"/>
<path d="M9.30045 8.83862L9.48397 9.21034L9.89436 9.27011L9.5974 9.55956L9.66748 9.96831L9.30045 9.77542L8.93342 9.96831L9.0035 9.55956L8.70654 9.27011L9.11693 9.21034L9.30045 8.83862Z" fill="#F0F0F0"/>
<path d="M10.9479 8.83862L11.1314 9.21034L11.5418 9.27011L11.2449 9.55956L11.3149 9.96831L10.9479 9.77542L10.5809 9.96831L10.651 9.55956L10.354 9.27011L10.7644 9.21034L10.9479 8.83862Z" fill="#F0F0F0"/>
<path d="M12.5959 8.83862L12.7794 9.21034L13.1898 9.27011L12.8928 9.55956L12.9629 9.96831L12.5959 9.77542L12.2288 9.96831L12.2989 9.55956L12.002 9.27011L12.4123 9.21034L12.5959 8.83862Z" fill="#F0F0F0"/>
<path d="M4.35709 10.3223L4.54061 10.6942L4.951 10.7537L4.65404 11.0432L4.72412 11.452L4.35709 11.2591L3.99006 11.452L4.06014 11.0432L3.76318 10.7537L4.17357 10.6942L4.35709 10.3223Z" fill="#F0F0F0"/>
<path d="M6.00455 10.3223L6.18831 10.6942L6.5987 10.7537L6.30151 11.0432L6.37182 11.452L6.00455 11.2591L5.63752 11.452L5.7076 11.0432L5.41064 10.7537L5.82104 10.6942L6.00455 10.3223Z" fill="#F0F0F0"/>
<path d="M7.65273 10.3223L7.83625 10.6942L8.24664 10.7537L7.94969 11.0432L8.01977 11.452L7.65273 11.2591L7.28547 11.452L7.35555 11.0432L7.05859 10.7537L7.46898 10.6942L7.65273 10.3223Z" fill="#F0F0F0"/>
<path d="M9.30045 10.3223L9.48397 10.6942L9.89436 10.7537L9.5974 11.0432L9.66748 11.452L9.30045 11.2591L8.93342 11.452L9.0035 11.0432L8.70654 10.7537L9.11693 10.6942L9.30045 10.3223Z" fill="#F0F0F0"/>
<path d="M10.9479 10.3223L11.1314 10.6942L11.5418 10.7537L11.2449 11.0432L11.3149 11.452L10.9479 11.2591L10.5809 11.452L10.651 11.0432L10.354 10.7537L10.7644 10.6942L10.9479 10.3223Z" fill="#F0F0F0"/>
<path d="M12.5959 10.3223L12.7794 10.6942L13.1898 10.7537L12.8928 11.0432L12.9629 11.452L12.5959 11.2591L12.2288 11.452L12.2989 11.0432L12.002 10.7537L12.4123 10.6942L12.5959 10.3223Z" fill="#F0F0F0"/>
<path d="M4.35709 11.8062L4.54061 12.1781L4.951 12.2376L4.65404 12.5271L4.72412 12.9358L4.35709 12.7429L3.99006 12.9358L4.06014 12.5271L3.76318 12.2376L4.17357 12.1781L4.35709 11.8062Z" fill="#F0F0F0"/>
<path d="M6.00455 11.8062L6.18831 12.1781L6.5987 12.2376L6.30151 12.5271L6.37182 12.9358L6.00455 12.7429L5.63752 12.9358L5.7076 12.5271L5.41064 12.2376L5.82104 12.1781L6.00455 11.8062Z" fill="#F0F0F0"/>
<path d="M7.65273 11.8062L7.83625 12.1781L8.24664 12.2376L7.94969 12.5271L8.01977 12.9358L7.65273 12.7429L7.28547 12.9358L7.35555 12.5271L7.05859 12.2376L7.46898 12.1781L7.65273 11.8062Z" fill="#F0F0F0"/>
<path d="M9.30045 11.8062L9.48397 12.1781L9.89436 12.2376L9.5974 12.5271L9.66748 12.9358L9.30045 12.7429L8.93342 12.9358L9.0035 12.5271L8.70654 12.2376L9.11693 12.1781L9.30045 11.8062Z" fill="#F0F0F0"/>
<path d="M10.9479 11.8062L11.1314 12.1781L11.5418 12.2376L11.2449 12.5271L11.3149 12.9358L10.9479 12.7429L10.5809 12.9358L10.651 12.5271L10.354 12.2376L10.7644 12.1781L10.9479 11.8062Z" fill="#F0F0F0"/>
<path d="M12.5959 11.8062L12.7794 12.1781L13.1898 12.2376L12.8928 12.5271L12.9629 12.9358L12.5959 12.7429L12.2288 12.9358L12.2989 12.5271L12.002 12.2376L12.4123 12.1781L12.5959 11.8062Z" fill="#F0F0F0"/>
</svg>
