<svg width="820" height="786" viewBox="0 0 820 786" fill="none" xmlns="http://www.w3.org/2000/svg">
<path d="M319.871 876.978C319.871 859.821 321.525 842.698 324.822 825.885C263.493 813.206 211.178 772.214 182.862 714.661C154.545 657.12 153.357 589.35 179.631 530.777C38.1265 477.771 -34.9348 316.439 16.4368 170.431C67.8083 24.4239 224.176 -50.9622 365.67 2.04396C369.589 -125.856 472.187 -226.886 596.187 -224.973C720.198 -223.049 819.8 -118.881 820 9.08778L820 876.978C820 1019.47 708.044 1135 569.935 1135C431.827 1135 319.871 1019.47 319.871 876.978Z" fill="#01FF94"/>
</svg>
