<svg width="888" height="786" viewBox="0 0 888 786" fill="none" xmlns="http://www.w3.org/2000/svg">
<path d="M541.603 -71.9784C541.603 -54.8213 539.812 -37.6985 536.242 -20.885C602.656 -8.20605 659.31 32.7855 689.974 90.3387C720.639 147.88 721.925 215.65 693.472 274.223C846.712 327.229 925.832 488.561 870.2 634.569C814.569 780.576 645.233 855.962 492.006 802.956C487.763 930.856 376.656 1031.89 242.373 1029.97C108.078 1028.05 0.21637 923.881 0 795.912L0 -71.9784C0 -214.47 121.24 -330 270.802 -330C420.363 -330 541.603 -214.47 541.603 -71.9784Z" fill="#01FF94"/>
</svg>
