<svg width="100" height="100" viewBox="0 0 100 100" fill="none" xmlns="http://www.w3.org/2000/svg">
<g clip-path="url(#clip0)">
<path d="M98.173 45.5502C98.1689 45.5502 98.1689 45.5481 98.1689 45.5481L54.423 1.77371C52.063 -0.591914 47.9329 -0.589879 45.5811 1.77167L1.82699 45.5502C0.651042 46.733 0 48.3026 0 49.9699C0 51.6392 0.651042 53.2106 1.83105 54.3914L45.577 98.1658C46.757 99.3486 48.3276 100 50 100C51.6724 100 53.243 99.3486 54.4189 98.1678L98.1689 54.3914C99.349 53.2106 100 51.6392 100 49.9699C100 48.3026 99.349 46.733 98.173 45.5502Z" fill="#EF473B"/>
<path opacity="0.1" d="M98.6708 52.8743L54.4651 97.1068C53.277 98.2997 51.6898 98.9582 50.0001 98.9582C48.3105 98.9582 46.7233 98.2997 45.5311 97.1047L1.32945 52.8743C0.812937 52.3573 0.418243 51.7561 0.112305 51.115C0.33966 52.3482 0.926107 53.4854 1.83121 54.3911L45.5771 98.1655C46.7571 99.3483 48.3278 99.9998 50.0001 99.9998C51.6725 99.9998 53.2431 99.3483 54.4191 98.1675L98.1691 54.3911C99.0742 53.4854 99.6609 52.3482 99.8882 51.115C99.5823 51.7561 99.1874 52.3573 98.6708 52.8743Z" fill="#010101"/>
<path d="M70.8321 41.6669C69.2701 41.6669 67.8238 42.1254 66.5729 42.8764L57.1226 33.4261C57.8733 32.1754 58.3321 30.7291 58.3321 29.1669C58.3321 24.5709 54.5927 20.8335 49.9988 20.8335C48.4576 20.8335 47.0309 21.2827 45.7912 22.0151L35.5673 11.7899L32.6221 14.7366L42.8457 24.9616C42.1143 26.2006 41.6654 27.6265 41.6654 29.1669C41.6654 33.0391 44.3322 36.2726 47.9154 37.2042V62.7962C44.3322 63.7278 41.6654 66.9614 41.6654 70.8335C41.6654 75.4295 45.4049 79.1669 49.9988 79.1669C54.5927 79.1669 58.3321 75.4295 58.3321 70.8335C58.3321 66.9614 55.6654 63.7278 52.0821 62.7962V37.2042C52.8186 37.0127 53.5093 36.7215 54.1525 36.3479L63.6511 45.8465C62.9377 47.0743 62.4988 48.4807 62.4988 50.0002C62.4988 54.5962 66.2382 58.3335 70.8321 58.3335C75.426 58.3335 79.1654 54.5962 79.1654 50.0002C79.1654 45.4043 75.426 41.6669 70.8321 41.6669Z" fill="white"/>
<path opacity="0.2" d="M1.82699 46.5918L45.5811 2.81334C47.9329 0.451787 52.063 0.449753 54.423 2.81537L98.1689 46.5898C98.1689 46.5898 98.1689 46.5918 98.173 46.5918C99.2243 47.6493 99.8271 49.022 99.9491 50.4909C99.9636 50.3165 100 50.1469 100 49.9699C100 48.3026 99.349 46.733 98.173 45.5502C98.1689 45.5502 98.1689 45.5481 98.1689 45.5481L54.423 1.77371C52.063 -0.591914 47.9329 -0.589879 45.5811 1.77167L1.82699 45.5502C0.651042 46.733 0 48.3026 0 49.9699C0 50.1466 0.0363667 50.3162 0.0508625 50.4904C0.173187 49.0215 0.77591 47.649 1.82699 46.5918Z" fill="white"/>
<path d="M77.2874 44.7926C78.4445 46.2236 79.1673 48.0196 79.1673 49.9994C79.1673 54.5954 75.4279 58.3327 70.8339 58.3327C66.24 58.3327 62.5006 54.5954 62.5006 49.9994C62.5006 48.4799 62.9396 47.0735 63.6529 45.8457L54.1543 36.3471C53.5111 36.7207 52.8204 37.0119 52.0839 37.2034V62.7954C55.6672 63.727 58.3339 66.9606 58.3339 70.8327C58.3339 75.4287 54.5945 79.1661 50.0006 79.1661C47.8695 79.1661 45.943 78.3383 44.4678 77.0171L60.017 92.5663L92.5291 60.0343L77.2874 44.7926ZM57.1244 33.4253L66.5747 42.8756C67.8257 42.1246 69.272 41.6661 70.8339 41.6661C72.8135 41.6661 74.61 42.3891 76.0415 43.5467L56.5512 24.0562L56.541 24.0645C57.647 25.4788 58.3339 27.2353 58.3339 29.1661C58.3339 30.7283 57.8752 32.1746 57.1244 33.4253Z" fill="url(#paint0_linear)"/>
<path d="M98.173 45.5502C98.1689 45.5502 98.1689 45.5481 98.1689 45.5481L54.423 1.77371C52.063 -0.591914 47.9329 -0.589879 45.5811 1.77167L1.82699 45.5502C0.651042 46.733 0 48.3026 0 49.9699C0 51.6392 0.651042 53.2106 1.83105 54.3914L45.577 98.1658C46.757 99.3486 48.3276 100 50 100C51.6724 100 53.243 99.3486 54.4189 98.1678L98.1689 54.3914C99.349 53.2106 100 51.6392 100 49.9699C100 48.3026 99.349 46.733 98.173 45.5502Z" fill="url(#paint1_linear)"/>
</g>
<defs>
<linearGradient id="paint0_linear" x1="40.2892" y1="40.3164" x2="76.2781" y2="76.3052" gradientUnits="userSpaceOnUse">
<stop stop-color="#010101" stop-opacity="0.1"/>
<stop offset="1" stop-color="#010101" stop-opacity="0"/>
</linearGradient>
<linearGradient id="paint1_linear" x1="8.39091" y1="30.5831" x2="91.5974" y2="69.3829" gradientUnits="userSpaceOnUse">
<stop stop-color="white" stop-opacity="0.2"/>
<stop offset="1" stop-color="white" stop-opacity="0"/>
</linearGradient>
<clipPath id="clip0">
<rect width="100" height="100" fill="white"/>
</clipPath>
</defs>
</svg>
