<svg width="100" height="100" viewBox="0 0 100 100" fill="none" xmlns="http://www.w3.org/2000/svg">
<path fill-rule="evenodd" clip-rule="evenodd" d="M49.9969 0C22.3868 0 0 22.9521 0 51.2657C0 73.9134 14.3223 93.1288 34.196 99.9099C36.6967 100.378 37.4844 98.8588 37.4844 97.5C37.4844 96.2822 37.5094 92.8788 37.4844 88.6005C23.5778 91.6995 20.6958 81.8482 20.6958 81.8482C18.4234 75.9259 15.1475 74.3492 15.1475 74.3492C10.6089 71.1701 15.4882 71.231 15.4882 71.231C20.5051 71.5932 23.1495 76.5156 23.1495 76.5156C27.61 84.3447 34.8493 82.0822 37.6969 80.7746C38.1533 77.461 39.4474 75.2017 40.8758 73.9198C29.7731 72.6251 18.1014 68.2282 18.1014 48.5834C18.1014 42.9847 20.0488 38.4116 23.2464 34.8288C22.7307 33.5341 21.0115 28.32 23.7372 21.26C23.7372 21.26 27.9351 19.882 37.4844 26.5189C41.4729 25.3813 45.7521 24.814 50.0031 24.7948C54.2511 24.814 58.5271 25.3813 62.5219 26.5189C72.0711 19.8852 76.2628 21.26 76.2628 21.26C78.9885 28.32 77.2724 33.5341 76.7598 34.8288C79.9575 38.4116 81.8986 42.9847 81.8986 48.5834C81.8986 68.2795 70.2082 72.6122 59.0679 73.8781C60.8621 75.4644 62.4906 78.541 62.4906 83.3224C62.4906 89.7318 62.4906 95.8271 62.4906 97.5128C62.4906 98.8844 63.2971 100.4 65.8352 99.9035C85.6902 93.1128 100 73.907 100 51.2657C100 22.9521 77.6131 0 49.9969 0Z" fill="#181616"/>
</svg>
