<svg width="100" height="100" viewBox="0 0 100 100" fill="none" xmlns="http://www.w3.org/2000/svg">
<path d="M99.3622 0.706522C98.8996 0.256522 98.2495 0 97.5653 0H2.43475C1.75058 0 1.1005 0.256522 0.637899 0.706522C0.175296 1.15652 -0.0511352 1.76087 0.00973361 2.36739L8.58006 88.0783C8.67014 88.9739 9.36892 89.7283 10.3379 89.9761L49.3183 99.9174C49.535 99.9717 49.7614 100 49.9854 100C50.2094 100 50.4359 99.9717 50.6525 99.9174L89.667 89.9761C90.636 89.7283 91.3348 88.9739 91.4249 88.0783L99.9903 2.36739C100.051 1.76087 99.8223 1.15652 99.3622 0.706522ZM18.3483 58.7043L35.3915 62.9261V19.5652H45.1305V76.087L18.3483 69.4543V58.7043ZM81.7833 43.4783L79.217 70.1087L54.8695 76.087V66.0848L71.3041 62.0522L71.9128 53.9L54.8695 56.5217V19.5652H84.0865L83.2466 28.2609H64.6085V45.6522L81.7833 43.4783Z" fill="#E5CD2A"/>
<path d="M49 4V95L84.5441 86.0082L94 4H49Z" fill="white" fill-opacity="0.2"/>
</svg>
