<svg width="100" height="100" viewBox="0 0 100 100" fill="none" xmlns="http://www.w3.org/2000/svg">
<path d="M50 93.75C74.1625 93.75 93.75 74.1625 93.75 50C93.75 25.8375 74.1625 6.25 50 6.25C25.8375 6.25 6.25 25.8375 6.25 50C6.25 74.1625 25.8375 93.75 50 93.75Z" fill="#3F4142"/>
<path d="M82.7157 39.4717L54.6157 42.6561L67.572 55.5936L83.0345 40.1498C83.4876 39.6873 83.3376 39.3967 82.7157 39.4717Z" fill="#EBEDED"/>
<path d="M63.3529 55.5002L51.5248 43.6721L42.1279 61.3752L49.7561 69.0034C50.0458 69.2914 50.3896 69.5194 50.7677 69.6744C51.1457 69.8294 51.5506 69.9083 51.9592 69.9065V69.9065C52.3678 69.9083 52.7727 69.8294 53.1507 69.6744C53.5288 69.5194 53.8725 69.2914 54.1623 69.0034L63.3342 59.8877C63.6223 59.6013 63.8505 59.2603 64.0056 58.8848C64.1606 58.5092 64.2394 58.1065 64.2373 57.7002C64.2464 57.2928 64.1727 56.8877 64.0207 56.5096C63.8687 56.1314 63.6415 55.7881 63.3529 55.5002Z" fill="#EBEDED"/>
<path d="M37.8125 29.9622V53.109C37.9708 55.6033 38.951 57.9747 40.6 59.8528L42.125 61.3778L51.5219 43.6747L37.8125 29.9622Z" fill="#F9F9F9"/>
<path d="M24.7057 59.6065L34.9119 69.8127V45.594L24.7057 55.8002C24.2068 56.3081 23.9272 56.9915 23.9272 57.7034C23.9272 58.4153 24.2068 59.0987 24.7057 59.6065V59.6065Z" fill="#F9F9F9"/>
<path d="M32.4279 40.2065L22.2217 30.0002V54.2002L32.4279 43.994C32.9264 43.4897 33.206 42.8093 33.206 42.1002C33.206 41.3912 32.9264 40.7107 32.4279 40.2065V40.2065Z" fill="#F9F9F9"/>
<path d="M51.5248 43.6721L51.8842 44.0315L42.4873 61.7346L42.1279 61.3752L51.5248 43.6721Z" fill="url(#paint0_linear)"/>
<defs>
<linearGradient id="paint0_linear" x1="46.8404" y1="52.6127" x2="47.2623" y2="52.8409" gradientUnits="userSpaceOnUse">
<stop stop-opacity="0.03"/>
<stop offset="0.085" stop-color="#090909" stop-opacity="0.027"/>
<stop offset="0.224" stop-color="#212121" stop-opacity="0.023"/>
<stop offset="0.398" stop-color="#494949" stop-opacity="0.018"/>
<stop offset="0.603" stop-color="#808080" stop-opacity="0.012"/>
<stop offset="0.83" stop-color="#C6C6C6" stop-opacity="0.01"/>
<stop offset="1" stop-color="white" stop-opacity="0"/>
</linearGradient>
</defs>
</svg>
