<svg width="100" height="100" viewBox="0 0 100 100" fill="none" xmlns="http://www.w3.org/2000/svg">
<g clip-path="url(#clip0)">
<path d="M54.9219 95.5469C79.9219 95.5469 100.234 75.2344 100.234 50.2344H9.60938C9.60937 75.3125 29.9219 95.5469 54.9219 95.5469Z" fill="#C8421D"/>
<path d="M54.9219 4.92188V50.2344H100.234C100.234 25.2344 80 4.92188 54.9219 4.92188Z" fill="#FF8F6A"/>
<path d="M9.6875 50.2344H55V4.92188C30 4.92188 9.6875 25.2344 9.6875 50.2344Z" fill="#ED6B47"/>
<path d="M46.3281 75.3906H4.92188C2.1875 75.3906 -0.078125 73.125 -0.078125 70.3906V29.6094C-0.078125 26.875 2.1875 24.6094 4.92188 24.6094H46.3281C49.0625 24.6094 51.3281 26.875 51.3281 29.6094V70.3906C51.3281 73.125 49.0625 75.3906 46.3281 75.3906Z" fill="#C8421D"/>
<path d="M22.1094 53.5937V64.2969H16.0938V34.7656H28.0469C31.4844 34.7656 34.2187 35.625 36.1719 37.3437C38.125 39.0625 39.1406 41.3281 39.1406 44.2187C39.1406 47.0312 38.125 49.2969 36.1719 51.0156C34.2187 52.7344 31.4844 53.5937 28.0469 53.5937H22.1094ZM22.1094 49.0625H28.0469C29.6875 49.0625 31.0156 48.5937 31.875 47.7344C32.7344 46.7969 33.2031 45.7031 33.2031 44.2969C33.2031 42.8906 32.8125 41.7188 31.9531 40.7813C31.0938 39.8438 29.8437 39.375 28.125 39.375H22.1875V49.0625H22.1094Z" fill="white"/>
<path opacity="0.2" d="M51.1719 29.1406C51.1719 29.2969 51.1719 29.4531 51.1719 29.6094V70.3906C51.1719 73.125 48.9062 75.3906 46.1719 75.3906H17.4219L20.3906 79.8437H50.3125C53.0469 79.8437 55.3125 77.5781 55.3125 74.8438V34.0625C55.3906 31.5625 53.5938 29.4531 51.1719 29.1406Z" fill="black"/>
</g>
<defs>
<clipPath id="clip0">
<rect width="100" height="100" fill="white"/>
</clipPath>
</defs>
</svg>
