<svg width="100" height="100" viewBox="0 0 100 100" fill="none" xmlns="http://www.w3.org/2000/svg">
<path d="M36.3491 46.5513H59.484C65.9179 46.5513 71.0519 41.2734 71.0519 34.8541V12.9035C71.0519 6.65678 65.7662 1.9822 59.484 0.926664C51.7292 -0.344361 43.3028 -0.279759 36.3491 0.947905C26.5578 2.67137 24.7817 6.26895 24.7817 12.9252V17.6232H47.9382V24.6219H16.0952C9.35845 24.6219 3.46583 28.6501 1.6248 36.2975C-0.498111 45.0648 -0.584657 50.5363 1.6248 59.6914C3.27116 66.4987 7.19193 71.3667 13.9289 71.3667H21.879V60.8549C21.8788 53.2509 28.4858 46.5513 36.3491 46.5513Z" fill="#347AB4"/>
<path d="M98.2203 39.7888C96.5522 33.1326 93.3898 28.1133 86.6529 28.1133H77.9668V38.324C77.9668 46.2512 71.2078 52.9287 63.4962 52.9287H40.3611C34.0355 52.9287 28.7935 58.3146 28.7935 64.6259V86.5552C28.7935 92.8017 34.2522 96.4637 40.3611 98.2522C47.6827 100.385 54.7227 100.773 63.496 98.2522C69.3234 96.5714 75.0639 93.19 75.0639 86.5552V81.9571H51.9506V74.858H86.6527C93.3898 74.858 95.8807 70.1834 98.2201 63.1827C100.646 55.9661 100.538 49.0298 98.2203 39.7888Z" fill="#FFCA1D"/>
<path d="M34.8984 13.5586C32.5907 13.5586 30.7197 11.6772 30.7197 9.36183C30.7404 7.02564 32.5907 5.14429 34.8984 5.14429C37.1854 5.14429 39.0773 7.04622 39.0773 9.36183C39.077 11.6772 37.2061 13.5586 34.8984 13.5586Z" fill="white"/>
<path d="M62.9718 94.6909C60.6642 94.6909 58.793 92.8095 58.793 90.4942C58.8139 88.158 60.6639 86.2766 62.9718 86.2766C65.2588 86.2766 67.1507 88.1785 67.1507 90.4942C67.1507 92.8095 65.2797 94.6909 62.9718 94.6909Z" fill="white"/>
</svg>
