<svg width="100" height="100" viewBox="0 0 100 100" fill="none" xmlns="http://www.w3.org/2000/svg">
<path d="M100 43.4374C100 19.4421 77.6075 0 50.0002 0C22.3927 0 0 19.4421 0 43.4374C0 64.8214 17.7799 82.5892 41.205 86.1827V100H58.2618V86.272C62.444 85.6693 66.4546 84.6205 70.2064 83.1691L77.1084 100H96.3856L84.7851 74.6202C94.1652 66.7185 100 55.6692 100 43.4374ZM19.656 46.6739C19.656 30.2679 36.6782 16.9865 57.6589 16.9865C78.6401 16.9865 94.1311 26.0714 94.1311 46.6739C94.1311 57.8572 89.5697 65.6469 82.0314 70.4237C81.618 70.0665 81.2221 69.7763 80.9299 69.5976C79.174 68.4372 76.1447 67.2539 76.1447 67.2539C76.1447 67.2539 91.05 65.8257 91.05 46.5623C91.05 27.2989 75.4562 26.9417 75.4562 26.9417H41.205V73.4372C28.451 68.6382 19.656 58.4597 19.656 46.6739ZM58.3994 55.2229V42.8121C68.3477 42.8121 73.5116 41.2945 73.5116 48.9057C73.5114 57.0534 66.9359 55.2229 58.3994 55.2229ZM58.2444 71.4062H62.8227C64.6818 71.4062 66.0759 74.0174 66.9535 75.6912C64.1825 76.1161 61.2737 76.3165 58.2444 76.3394V71.4062Z" fill="#2167BA"/>
</svg>
