<svg width="100" height="100" viewBox="0 0 100 100" fill="none" xmlns="http://www.w3.org/2000/svg">
<path d="M49.9984 60.1891C55.0438 60.1891 59.1339 55.6085 59.1339 49.9581C59.1339 44.3076 55.0438 39.7271 49.9984 39.7271C44.9529 39.7271 40.8628 44.3076 40.8628 49.9581C40.8628 55.6085 44.9529 60.1891 49.9984 60.1891Z" fill="#61DAFB"/>
<path d="M50 87.5687C57.1709 95.3795 64.2436 100 69.9411 100C71.8075 100 73.5756 99.5599 75.0491 98.5698C80.1572 95.2695 82.0236 87.0187 80.2554 75.2475C79.9607 73.1573 79.5678 71.0671 79.0766 68.8669C81.0413 68.2068 82.8094 67.5468 84.5776 66.8867C94.499 62.5963 100 56.6557 100 50.165C100 43.5644 94.499 37.6238 84.5776 33.4433C82.8094 32.6733 81.0413 32.0132 79.0766 31.4631C79.5678 29.2629 79.9607 27.1727 80.2554 25.0825C81.9253 13.0913 80.0589 4.73047 74.9509 1.43014C73.4774 0.440044 71.7092 0 69.8428 0C64.2436 0 57.0727 4.62046 49.9018 12.4312C42.8291 4.62046 35.7564 0 30.0589 0C28.1925 0 26.4244 0.440044 24.9509 1.43014C19.8428 4.73047 17.9764 12.9813 19.7446 24.7525C20.0393 26.8427 20.4322 28.9329 20.9234 31.1331C18.9587 31.7932 17.1906 32.4532 15.4224 33.1133C5.50098 37.4037 0 43.3443 0 49.835C0 56.4356 5.50098 62.3762 15.4224 66.5567C17.1906 67.3267 18.9587 67.9868 20.9234 68.5369C20.4322 70.7371 20.0393 72.8273 19.7446 74.9175C18.0747 86.6887 19.9411 95.0495 24.9509 98.2398C26.4244 99.2299 28.1925 99.67 30.0589 99.67C35.7564 99.89 42.8291 95.2695 50 87.5687ZM44.499 72.7173C46.2672 72.8273 48.1336 72.8273 50 72.8273C51.8664 72.8273 53.7328 72.8273 55.501 72.7173C53.7328 75.3575 51.8664 77.7778 50 80.088C48.1336 77.7778 46.2672 75.3575 44.499 72.7173ZM32.3183 61.3861C33.3006 63.2563 34.1847 65.0165 35.2652 66.7767C32.22 66.3366 29.3713 65.7866 26.6208 65.1265C27.5049 62.1562 28.4872 59.0759 29.666 55.9956C30.4519 57.7558 31.336 59.626 32.3183 61.3861ZM26.6208 34.8735C29.3713 34.2134 32.22 33.6634 35.2652 33.2233C34.2829 34.9835 33.3006 36.7437 32.3183 38.6139C31.336 40.484 30.4519 42.2442 29.666 44.1144C28.389 40.9241 27.4067 37.8438 26.6208 34.8735ZM32.0236 49.945C33.3006 46.9747 34.6758 44.0044 36.2475 41.0341C37.721 38.1738 39.391 35.3135 41.0609 32.4532C44.0079 32.2332 46.9548 32.1232 50 32.1232C53.1434 32.1232 56.0904 32.2332 58.9391 32.4532C60.7073 35.3135 62.279 38.1738 63.7525 41.0341C65.3242 44.0044 66.6994 46.9747 67.9764 49.945C66.6994 52.9153 65.3242 55.8856 63.7525 58.8559C62.279 61.7162 60.609 64.5765 58.9391 67.4367C55.9921 67.6568 53.0452 67.7668 50 67.7668C46.8566 67.7668 43.9096 67.6568 41.0609 67.4367C39.2927 64.5765 37.721 61.7162 36.2475 58.8559C34.6758 55.8856 33.3006 52.9153 32.0236 49.945ZM70.4322 44.0044L67.78 38.5038C66.7976 36.6337 65.9136 34.8735 64.833 33.1133C67.8782 33.5534 70.7269 34.1034 73.4774 34.7635C72.5933 37.8438 71.611 40.9241 70.4322 44.0044ZM70.4322 55.8856C71.611 58.9659 72.5933 62.0462 73.4774 65.0165C70.7269 65.6766 67.8782 66.2266 64.833 66.6667C65.8153 64.9065 66.7976 63.1463 67.78 61.2761C68.664 59.626 69.5481 57.7558 70.4322 55.8856ZM72.6915 94.0594C71.9057 94.6095 70.9234 94.8295 69.8428 94.8295C65.0295 94.8295 59.0373 90.429 53.1434 83.8284C55.9921 80.418 58.7426 76.5677 61.4931 72.2772C66.11 71.8372 70.5304 71.0671 74.6562 69.967C75.1473 71.9472 75.442 73.9274 75.7367 75.9076C77.112 85.2585 76.0314 91.9692 72.6915 94.0594ZM77.7996 36.0836C88.8016 39.604 95.3831 44.9945 95.3831 49.945C95.3831 54.2354 90.8644 58.5259 82.9077 61.9362C81.336 62.5963 79.5678 63.2563 77.7996 63.8064C76.5226 59.2959 74.9509 54.6755 72.9862 49.945C74.9509 45.2145 76.6208 40.5941 77.7996 36.0836ZM69.9411 5.06051C71.0216 5.06051 71.9057 5.28053 72.7898 5.83058C76.0314 7.92079 77.2102 14.5214 75.835 23.9824C75.5403 25.8526 75.1473 27.8328 74.7544 29.923C70.6287 28.9329 66.2083 28.1628 61.5914 27.6128C58.9391 23.3223 56.0904 19.4719 53.2417 16.0616C59.1356 9.57096 65.1277 5.06051 69.9411 5.06051ZM55.501 27.1727C53.7328 27.0627 51.8664 27.0627 50 27.0627C48.1336 27.0627 46.2672 27.0627 44.499 27.1727C46.2672 24.5325 48.1336 22.1122 50 19.802C51.8664 22.1122 53.7328 24.6425 55.501 27.1727ZM27.3084 5.83058C28.0943 5.28053 29.0766 5.06051 30.1572 5.06051C34.9705 5.06051 40.9627 9.46095 46.8566 16.0616C44.0079 19.4719 41.2574 23.3223 38.5069 27.6128C33.89 28.0528 29.4695 28.8229 25.3438 29.923C24.8527 27.9428 24.558 25.9626 24.2633 23.9824C22.888 14.6315 23.9686 8.0308 27.3084 5.83058ZM22.2004 63.8064C11.1984 60.286 4.61689 54.8955 4.61689 49.945C4.61689 45.6546 9.13556 41.3641 17.0923 37.9538C18.664 37.2937 20.4322 36.6337 22.2004 36.0836C23.4774 40.5941 25.0491 45.2145 27.0137 49.945C25.0491 54.6755 23.3792 59.4059 22.2004 63.8064ZM24.2633 75.9076C24.558 74.0374 24.9509 72.0572 25.3438 69.967C29.4695 70.9571 33.89 71.7272 38.5069 72.2772C41.1591 76.5677 44.0079 80.418 46.8566 83.8284C40.9627 90.319 34.9705 94.8295 30.1572 94.8295C29.0766 94.8295 28.1925 94.6095 27.3084 94.0594C23.9686 91.9692 22.888 85.2585 24.2633 75.9076Z" fill="#61DAFB"/>
</svg>
