<svg width="100" height="100" viewBox="0 0 100 100" fill="none" xmlns="http://www.w3.org/2000/svg">
<path d="M72.4751 10.1311H17.572C15.799 10.1361 14.1001 10.8425 12.8465 12.0962C11.5928 13.3499 10.8863 15.0488 10.8813 16.8217V77.3717C10.8863 79.1447 11.5928 80.8436 12.8465 82.0972C14.1001 83.3509 15.799 84.0574 17.572 84.0623H53.7345C53.322 66.0686 59.4688 31.1499 72.4751 10.1311Z" fill="#0F80CC"/>
<path d="M70.4813 12.0842H17.572C16.316 12.0859 15.112 12.5855 14.2239 13.4736C13.3358 14.3617 12.8361 15.5658 12.8345 16.8217V72.953C26.4083 67.8335 40.7369 64.9992 55.2376 64.5655C59.0729 46.7336 64.1669 29.196 70.4813 12.0842V12.0842Z" fill="url(#paint0_linear)"/>
<path d="M85.2814 8.14997C81.5314 4.79685 76.9689 6.14372 72.4689 10.1312C71.8033 10.725 71.1376 11.3812 70.4751 12.0843C62.0098 22.0961 56.1563 34.049 53.4376 46.875C54.2768 48.7059 54.9402 50.6124 55.4189 52.5687C55.5314 53.0062 55.6345 53.4187 55.7314 53.7687C55.9251 54.5968 56.0439 55.1343 56.0439 55.1343C56.0439 55.1343 55.9751 54.875 55.6908 54.0531L55.5064 53.5219C55.4751 53.4375 55.4345 53.3375 55.3876 53.2281C54.8876 52.0625 53.5126 49.6031 52.8876 48.5406C52.3658 50.0812 51.9033 51.5218 51.5189 52.825C52.8164 55.6156 53.7692 58.5539 54.3564 61.575C54.3564 61.575 54.2626 61.2156 53.822 59.9656C52.9754 58.14 52.0367 56.3586 51.0095 54.6281C50.3452 56.3424 50.0637 58.1811 50.1845 60.0156C50.8728 61.3878 51.3902 62.8393 51.7251 64.3375C52.7689 68.3468 53.4939 73.2312 53.4939 73.2312C53.4939 73.2312 53.5189 73.5437 53.5564 74.0531C53.4192 77.3927 53.487 80.7375 53.7595 84.0687C53.9144 87.367 54.5287 90.6276 55.5845 93.7562L56.147 93.4437C54.8377 88.7415 54.3326 83.8518 54.6533 78.9812C55.2415 68.6554 57.2803 58.4637 60.7095 48.7062C66.9908 32.1187 75.7095 18.8062 83.6783 12.4562C76.4095 19.0187 66.572 40.2687 63.6251 48.1375C60.522 56.2393 58.1643 64.6073 56.5814 73.1375C58.4654 68.3769 62.154 64.5535 66.8439 62.5C66.8439 62.5 70.697 57.7468 75.2001 50.9593C72.2909 51.5661 69.4169 52.3308 66.5908 53.25C64.4033 54.1687 63.8126 54.4812 63.8126 54.4812C67.9884 51.9665 72.4 49.8658 76.9845 48.2093C85.347 35.0375 94.4595 16.3343 85.2845 8.13435" fill="#003B57"/>
<defs>
<linearGradient id="paint0_linear" x1="41.5909" y1="13.4575" x2="41.5909" y2="69.703" gradientUnits="userSpaceOnUse">
<stop stop-color="#97D9F6"/>
<stop offset="0.92" stop-color="#0F80CC"/>
<stop offset="1" stop-color="#0F80CC"/>
</linearGradient>
</defs>
</svg>
