<svg width="100" height="100" viewBox="0 0 100 100" fill="none" xmlns="http://www.w3.org/2000/svg">
<path d="M100 26.7188H23.125V8.04688C23.125 5.54688 25.1563 3.51562 27.6563 3.51562H95.3907C97.8907 3.51562 99.9219 5.54688 99.9219 8.04688V26.7188H100Z" fill="#41A5ED"/>
<path d="M100 26.7186H23.125V49.9999H100V26.7186Z" fill="#2C7BD5"/>
<path d="M100 50H23.125V73.2812H100V50Z" fill="#195ABE"/>
<path d="M95.4688 96.4845H27.7344C25.2344 96.4845 23.2031 94.4532 23.2031 91.9532V73.2814H100V91.9532C100 94.4532 97.9688 96.4845 95.4688 96.4845Z" fill="#103E91"/>
<path d="M46.4844 75.3906H5.07812C2.34375 75.3906 0.078125 73.125 0.078125 70.3906V29.6094C0.078125 26.875 2.34375 24.6094 5.07812 24.6094H46.4844C49.2187 24.6094 51.4844 26.875 51.4844 29.6094V70.3906C51.4844 73.125 49.2969 75.3906 46.4844 75.3906Z" fill="#2166C3"/>
<path d="M15.0781 64.375L8.125 36.3281H13.6719L16.4063 49.0625C17.1094 52.5 17.8125 56.0156 18.2812 58.8281H18.3594C18.8281 55.8594 19.6094 52.5781 20.3906 48.9844L23.4375 36.3281H28.9063L31.7187 49.2188C32.4219 52.5781 33.0469 55.625 33.4375 58.6719H33.5156C33.9844 55.5469 34.6875 52.4219 35.4688 48.9844L38.4375 36.3281H43.75L36.0938 64.375H30.4688L27.5 51.1719C26.7969 48.0469 26.25 45.3906 25.8594 42.3438H25.7813C25.3125 45.3125 24.7656 48.0469 23.9063 51.25L20.625 64.4531H15.0781V64.375Z" fill="white"/>
</svg>
